<?xml version="1.0" encoding="UTF-8"?>
<svg id="Layer_2" xmlns="http://www.w3.org/2000/svg" viewBox="0 0 1000 1000.89">
    <defs>
        <style>.cls-1{fill:#fff;stroke-width:0px;}</style>
    </defs>
    <path class="cls-1"
          d="M707.2,812.85c-19.21,12.72-39.6,23.67-60.9,32.67-46.15,19.52-95.25,29.42-145.93,29.42s-99.78-9.9-145.93-29.42c-44.63-18.87-84.74-45.93-119.23-80.42-8.36-8.36-16.35-17.12-23.76-26.06-23.07-27.76-41.95-58.69-56.15-91.98-3.13-18.77-4.75-38.05-4.75-57.71,0-64.94,39.57-152.92,92.08-241.08l464.57,464.58Z"/>
    <path class="cls-1"
          d="M849.38,589.35c0,20.75-1.81,41.07-5.28,60.82-8.64,19.75-18.96,38.69-30.82,56.6L326.73,220.23c22.51-31.69,44.99-61.74,65.94-88.88l.56-.72,15.94-20.28c32.32-41.15,59.16-73.3,75.99-93.03l13.8-16.18.43-.49.13-.15c.29-.33.44-.5.44-.5,0,0,1.92,2.18,5.49,6.3l.58.67.67.78,8.1,9.51c16.82,19.73,43.63,51.86,75.86,92.87l10.36,13.18.32.41c103.18,132.8,248.04,341.38,248.04,465.63Z"/>
    <path class="cls-1"
          d="M533.45,1.99c16.02,18.79,43.54,51.7,76.5,93.64l21.46,27.31c8.17,2.84,16.25,5.96,24.26,9.34,47.62,20.14,90.41,49,127.17,85.77,36.77,36.77,65.63,79.55,85.77,127.17,20.83,49.25,31.39,101.63,31.39,155.67s-10.56,106.42-31.39,155.67c-13.62,32.21-31.24,62.21-52.59,89.63L254.71,184.88c27.42-21.37,57.41-38.98,89.62-52.6,7.68-3.25,15.44-6.25,23.27-9l21.54-27.42c32.99-42,60.56-74.97,76.63-93.81C205.59,19.64,0,236.26,0,500.89s223.86,500,500,500,500-223.86,500-500S794,19.2,533.45,1.99ZM655.67,869.5c-49.25,20.83-101.63,31.39-155.67,31.39s-106.42-10.56-155.67-31.39c-47.62-20.14-90.4-49-127.17-85.77-8.9-8.9-17.35-18.16-25.31-27.76-24.93-30.01-45.2-63.32-60.46-99.41-20.83-49.25-31.39-101.63-31.39-155.67s10.56-106.42,31.39-155.67c13.62-32.21,31.23-62.2,52.6-89.62l561.31,561.31c-27.42,21.35-57.42,38.97-89.63,52.59Z"/>
</svg>