<?xml version="1.0" encoding="UTF-8"?>
<svg id="Layer_2" xmlns="http://www.w3.org/2000/svg" viewBox="0 0 1080 1100.43">
    <defs>
        <style>.cls-1{fill:#fff;stroke-width:0px;}</style>
    </defs>
    <path class="cls-1"
          d="M722.9,870.63c-13.75,8.12-28.05,15.33-42.81,21.57-44.29,18.73-91.43,28.23-140.09,28.23s-95.8-9.5-140.09-28.23c-42.84-18.12-81.35-44.09-114.47-77.22-33.11-33.1-59.09-71.61-77.21-114.46-7.48-17.69-13.49-35.84-18.01-54.36h0c1.37-61.25,36.59-142.05,84.18-224.03l448.5,448.5Z"/>
    <path class="cls-1"
          d="M889,649.31c-4.43,17.43-10.18,34.52-17.23,51.21-6.24,14.76-13.45,29.07-21.58,42.82l-474.98-474.98c10.45-14.54,20.86-28.68,31.07-42.31,14.68-19.6,28.95-38.12,42.36-55.18,51.94-66.13,90.95-110.38,90.95-110.38,0,0,38.92,44.15,90.77,110.15,13.35,16.99,27.56,35.43,42.19,54.94,98.61,131.56,216.08,311.7,216.45,423.73Z"/>
    <path class="cls-1"
          d="M594.76,63.39c23.57,27.98,61.31,73.93,103.21,129.42,46.7,20.08,88.7,48.6,124.87,84.78,36.77,36.77,65.63,79.55,85.77,127.17,20.83,49.25,31.39,101.63,31.39,155.67,0,31.96-3.69,63.35-11.03,93.85-5.06,21.06-11.85,41.7-20.36,61.82-13.62,32.21-31.24,62.21-52.59,89.63l-504.25-504.25-28.73-28.73-28.33-28.33c26.42-20.59,55.22-37.69,86.1-51.09,42.01-55.65,79.87-101.76,103.52-129.83C234.39,91.18,40,303.11,40,560.43c0,276.14,223.86,500,500,500s500-223.86,500-500c0-257.63-194.86-469.76-445.24-497.04ZM140,560.43c0-54.04,10.56-106.42,31.39-155.67,13.62-32.21,31.23-62.2,52.6-89.62l71.63,71.63,489.68,489.68c-27.42,21.35-57.42,38.97-89.63,52.59-49.25,20.83-101.63,31.39-155.67,31.39s-106.42-10.56-155.67-31.39c-47.62-20.14-90.4-49-127.17-85.77-8.88-8.87-17.29-18.09-25.22-27.65-24.97-30.04-45.27-63.39-60.55-99.52-8.99-21.25-16.06-43.08-21.2-65.38-.01-.01,0-.02,0-.02-6.78-29.38-10.19-59.55-10.19-90.27Z"/>
</svg>